<?xml version="1.0" encoding="UTF-8"?>
<svg width="85px" height="17px" viewBox="0 0 85 17" version="1.1" xmlns="http://www.w3.org/2000/svg" xmlns:xlink="http://www.w3.org/1999/xlink">
    <!-- Generator: Sketch 50.2 (55047) - http://www.bohemiancoding.com/sketch -->
    <title>◼︎ / logo / light / small</title>
    <desc>Created with Sketch.</desc>
    <defs></defs>
    <g id="Panels-&amp;-Main-Menu" stroke="none" stroke-width="1" fill="none" fill-rule="evenodd">
        <g id="ucraft-badge-1" transform="translate(-193.000000, -765.000000)" fill="#FFFFFF">
            <g id="Group-4-Copy-4" transform="translate(0.000000, 752.000000)">
                <g id="Group-2" transform="translate(23.000000, 12.000000)">
                    <g id="◼︎-/-logo-/-light-/-small" transform="translate(170.000000, 1.000000)">
                        <g id="Group-4-Copy-3">
                            <g id="Group" transform="translate(34.656002, 0.000000)" fill-rule="nonzero">
                                <path d="M18.1107968,8.1321731 C18.467041,8.46985426 18.4920066,9.04324765 18.166559,9.41288307 C17.8411114,9.7825185 17.288491,9.80842254 16.9322468,9.47074138 C16.3861125,8.95306485 15.6792662,8.66232491 14.9269697,8.66232491 C13.2786286,8.66232491 11.9403031,10.0591157 11.9403031,11.7847909 C11.9403031,13.510466 13.2786286,14.9072568 14.9269697,14.9072568 C15.6716921,14.9072568 16.3719204,14.62239 16.9160238,14.1141064 C17.2746207,13.7791169 17.8270453,13.8091819 18.1498987,14.1812584 C18.4727522,14.5533349 18.4437764,15.1265252 18.0851795,15.4615147 C17.22344,16.2665237 16.1080131,16.7203016 14.9269697,16.7203016 C12.3112889,16.7203016 10.1929417,14.5094134 10.1929417,11.7847909 C10.1929417,9.06016837 12.3112889,6.84928016 14.9269697,6.84928016 C16.1200467,6.84928016 17.2459409,7.31238277 18.1107968,8.1321731 Z" id="Oval-3"></path>
                                <path d="M7.05680869,15.7605453 C6.31552029,16.3619034 5.38229983,16.7203016 4.36840359,16.7203016 C1.95580091,16.7203016 0,14.6909821 0,12.1876897 L0,8.15870137 C0,7.65804289 0.391160181,7.252179 0.873680718,7.252179 C1.35620125,7.252179 1.74736144,7.65804289 1.74736144,8.15870137 L1.74736144,12.1876897 C1.74736144,13.6896652 2.92084198,14.9072568 4.36840359,14.9072568 C5.8159652,14.9072568 6.98944574,13.6896652 6.98944574,12.1876897 L6.98944574,8.15870137 C6.98944574,7.65804289 7.38060592,7.252179 7.86312646,7.252179 C8.345647,7.252179 8.73680718,7.65804289 8.73680718,8.15870137 L8.73680718,15.4108804 C8.73680718,15.9115388 8.345647,16.3174027 7.86312646,16.3174027 C7.50005286,16.3174027 7.18870604,16.087609 7.05680869,15.7605453 Z" id="Combined-Shape"></path>
                                <path d="M45.0430948,5.23768483 L45.0430948,1.41014592 C45.0430948,0.909487433 45.434255,0.503623541 45.9167755,0.503623541 C46.399296,0.503623541 46.7904562,0.909487433 46.7904562,1.41014592 L46.7904562,5.23768483 L48.440742,5.23768483 C48.9232626,5.23768483 49.3144227,5.64354872 49.3144227,6.14420721 C49.3144227,6.64486569 48.9232626,7.05072958 48.440742,7.05072958 L46.7904562,7.05072958 L46.7904562,12.8060712 C46.7904562,13.9742743 47.7031633,14.92129 48.8290446,14.92129 C49.3115651,14.92129 49.7027253,15.3271539 49.7027253,15.8278124 C49.7027253,16.3284709 49.3115651,16.7343348 48.8290446,16.7343348 C46.7381222,16.7343348 45.0430948,14.9755913 45.0430948,12.8060712 L45.0430948,7.05072958 L39.8980861,7.05072958 L39.8980861,15.4249136 C39.8980861,15.9255721 39.5069259,16.3314359 39.0244054,16.3314359 C38.5418849,16.3314359 38.1507247,15.9255721 38.1507247,15.4249136 L38.1507247,7.05072958 L37.0828927,7.05072958 C36.6003722,7.05072958 36.209212,6.64486569 36.209212,6.14420721 C36.209212,5.64354872 36.6003722,5.23768483 37.0828927,5.23768483 L38.1507247,5.23768483 L38.1507247,3.92826362 C38.1507247,1.75874353 39.8457521,0 41.9366745,0 C42.419195,0 42.8103552,0.405863892 42.8103552,0.906522375 C42.8103552,1.40718086 42.419195,1.81304475 41.9366745,1.81304475 C40.8107932,1.81304475 39.8980861,2.7600605 39.8980861,3.92826362 L39.8980861,5.23768483 L45.0430948,5.23768483 Z" id="Combined-Shape"></path>
                                <path d="M36.1116606,11.8553147 C36.1119769,11.8653413 36.1121363,11.8754091 36.1121363,11.8855156 L36.1121363,15.4108804 C36.1121363,15.9115388 35.7209762,16.3174027 35.2384556,16.3174027 C34.8158145,16.3174027 34.4632656,16.0060216 34.3822737,15.5922972 C33.5598697,16.2969604 32.5052972,16.7203016 31.3554302,16.7203016 C28.728374,16.7203016 26.5987241,14.5105982 26.5987241,11.7847909 C26.5987241,9.05898357 28.728374,6.84928016 31.3554302,6.84928016 C33.9824865,6.84928016 36.1121363,9.05898357 36.1121363,11.7847909 C36.1121363,11.8083377 36.1119774,11.831846 36.1116606,11.8553147 Z M31.3554302,14.9072568 C33.0174454,14.9072568 34.3647749,13.5092812 34.3647749,11.7847909 C34.3647749,10.0603005 33.0174454,8.66232491 31.3554302,8.66232491 C29.693415,8.66232491 28.3460855,10.0603005 28.3460855,11.7847909 C28.3460855,13.5092812 29.693415,14.9072568 31.3554302,14.9072568 Z" id="Combined-Shape"></path>
                                <path d="M21.3873355,7.81148415 C22.1309423,7.20861802 23.0675861,6.84928016 24.0851283,6.84928016 C24.7151489,6.84928016 25.3279851,6.98765682 25.8907628,7.25161146 C26.3304492,7.45783364 26.5257657,7.99484437 26.3270146,8.4510585 C26.1282635,8.90727263 25.6107077,9.10993114 25.1710213,8.90370896 C24.833339,8.74532879 24.4657352,8.66232491 24.0851283,8.66232491 C22.6312605,8.66232491 21.4537154,9.88051889 21.4537154,11.381892 L21.4537154,15.4108804 C21.4537154,15.9115388 21.0625552,16.3174027 20.5800347,16.3174027 C20.0975142,16.3174027 19.706354,15.9115388 19.706354,15.4108804 L19.706354,8.15870137 C19.706354,7.65804289 20.0975142,7.252179 20.5800347,7.252179 C20.9440134,7.252179 21.256007,7.48311982 21.3873355,7.81148415 Z" id="Combined-Shape"></path>
                            </g>
                            <g id="Group-3" transform="translate(0.000000, 6.849280)">
                                <circle id="Oval-17-Copy-2" fill-opacity="0.160000011" cx="5.29411765" cy="5.29411765" r="4.23529412"></circle>
                                <path d="M4.75670613,9.87102141 C2.12964988,9.87102141 0,7.661318 0,4.93551071 C0,2.20970341 2.12964988,0 4.75670613,0 C7.38376239,0 9.51341226,2.20970341 9.51341226,4.93551071 C9.51341226,7.661318 7.38376239,9.87102141 4.75670613,9.87102141 Z M4.75670613,8.05797666 C6.41872131,8.05797666 7.76605083,6.66000104 7.76605083,4.93551071 C7.76605083,3.21102038 6.41872131,1.81304475 4.75670613,1.81304475 C3.09469095,1.81304475 1.74736144,3.21102038 1.74736144,4.93551071 C1.74736144,6.66000104 3.09469095,8.05797666 4.75670613,8.05797666 Z" id="Oval-17-Copy-4" fill-rule="nonzero"></path>
                                <circle id="Oval-17" fill-opacity="0.560000002" cx="27.5294118" cy="5.29411765" r="4.23529412"></circle>
                                <path d="M27.2782535,9.87102141 C24.6511973,9.87102141 22.5215474,7.661318 22.5215474,4.93551071 C22.5215474,2.20970341 24.6511973,0 27.2782535,0 C29.9053098,0 32.0349597,2.20970341 32.0349597,4.93551071 C32.0349597,7.661318 29.9053098,9.87102141 27.2782535,9.87102141 Z M27.2782535,8.05797666 C28.9402687,8.05797666 30.2875982,6.66000104 30.2875982,4.93551071 C30.2875982,3.21102038 28.9402687,1.81304475 27.2782535,1.81304475 C25.6162383,1.81304475 24.2689088,3.21102038 24.2689088,4.93551071 C24.2689088,6.66000104 25.6162383,8.05797666 27.2782535,8.05797666 Z" id="Oval-17-Copy" fill-rule="nonzero"></path>
                                <circle id="Oval-17-Copy-3" fill-opacity="0.320000023" cx="15.8823529" cy="5.29411765" r="4.23529412"></circle>
                                <path d="M16.0174798,9.87102141 C13.3904236,9.87102141 11.2607737,7.661318 11.2607737,4.93551071 C11.2607737,2.20970341 13.3904236,0 16.0174798,0 C18.6445361,0 20.774186,2.20970341 20.774186,4.93551071 C20.774186,7.661318 18.6445361,9.87102141 16.0174798,9.87102141 Z M16.0174798,8.05797666 C17.679495,8.05797666 19.0268245,6.66000104 19.0268245,4.93551071 C19.0268245,3.21102038 17.679495,1.81304475 16.0174798,1.81304475 C14.3554646,1.81304475 13.0081351,3.21102038 13.0081351,4.93551071 C13.0081351,6.66000104 14.3554646,8.05797666 16.0174798,8.05797666 Z" id="Oval-17-Copy-5" fill-rule="nonzero"></path>
                            </g>
                        </g>
                    </g>
                </g>
            </g>
        </g>
    </g>
</svg>